<svg width="65" height="65" viewBox="0 0 65 65" fill="none" xmlns="http://www.w3.org/2000/svg">
<path d="M32.2634 48.6732V56.6732" stroke="white" stroke-width="3" stroke-linecap="round" stroke-linejoin="round"/>
<path d="M21.2634 39.6732C23.4725 39.6732 25.2634 37.8823 25.2634 35.6732C25.2634 33.464 23.4725 31.6732 21.2634 31.6732C19.0542 31.6732 17.2634 33.464 17.2634 35.6732C17.2634 37.8823 19.0542 39.6732 21.2634 39.6732Z" fill="white"/>
<path d="M43.2634 39.6732C45.4725 39.6732 47.2634 37.8823 47.2634 35.6732C47.2634 33.464 45.4725 31.6732 43.2634 31.6732C41.0542 31.6732 39.2634 33.464 39.2634 35.6732C39.2634 37.8823 41.0542 39.6732 43.2634 39.6732Z" fill="white"/>
<path d="M36.2634 44.6732L32.2634 48.6732L28.2634 44.6732" stroke="white" stroke-width="3" stroke-linecap="round" stroke-linejoin="round"/>
<path d="M8.26337 34.6732V13.4982C8.26403 13.1016 8.38258 12.7142 8.60395 12.3851C8.82533 12.0561 9.13953 11.8003 9.50662 11.6502C9.87372 11.5002 10.2771 11.4626 10.6656 11.5424C11.0541 11.6222 11.4101 11.8156 11.6884 12.0982L17.1634 17.5732C21.5373 14.3557 26.8336 12.637 32.2634 12.6732C37.6932 12.637 42.9894 14.3557 47.3634 17.5732V17.5732L52.8384 12.0982C53.1166 11.8156 53.4726 11.6222 53.8611 11.5424C54.2496 11.4626 54.653 11.5002 55.0201 11.6502C55.3872 11.8003 55.7014 12.0561 55.9228 12.3851C56.1442 12.7142 56.2627 13.1016 56.2634 13.4982V34.6732C56.2634 46.8232 45.5134 56.6732 32.2634 56.6732C19.0134 56.6732 8.26337 46.8232 8.26337 34.6732Z" stroke="white" stroke-width="3" stroke-linecap="round" stroke-linejoin="round"/>
<path d="M27.2634 13.1481V22.6731" stroke="white" stroke-width="3" stroke-linecap="round" stroke-linejoin="round"/>
<path d="M37.2634 13.1481V22.6731" stroke="white" stroke-width="3" stroke-linecap="round" stroke-linejoin="round"/>
</svg>
