<svg width="65" height="65" viewBox="0 0 65 65" fill="none" xmlns="http://www.w3.org/2000/svg">
<path d="M32.2634 48.6732V54.6732" stroke="white" stroke-width="3" stroke-linecap="round" stroke-linejoin="round"/>
<path d="M23.2634 38.6732C25.4725 38.6732 27.2634 36.8823 27.2634 34.6732C27.2634 32.464 25.4725 30.6732 23.2634 30.6732C21.0542 30.6732 19.2634 32.464 19.2634 34.6732C19.2634 36.8823 21.0542 38.6732 23.2634 38.6732Z" fill="white"/>
<path d="M41.2634 38.6732C43.4725 38.6732 45.2634 36.8823 45.2634 34.6732C45.2634 32.464 43.4725 30.6732 41.2634 30.6732C39.0542 30.6732 37.2634 32.464 37.2634 34.6732C37.2634 36.8823 39.0542 38.6732 41.2634 38.6732Z" fill="white"/>
<path d="M36.2634 44.6732L32.2634 48.6732L28.2634 44.6732" stroke="white" stroke-width="3" stroke-linecap="round" stroke-linejoin="round"/>
<path d="M38.2634 12.6732L52.2134 9.19816C52.4763 9.13195 52.75 9.11991 53.0178 9.16277C53.2855 9.20563 53.5418 9.3025 53.7709 9.44748C54.0001 9.59246 54.1974 9.78252 54.3508 10.0061C54.5042 10.2297 54.6106 10.4822 54.6634 10.7482L58.7634 32.6482C59.1384 34.6982 56.5134 35.8982 55.2134 34.2482L38.2634 12.6732Z" stroke="white" stroke-width="3" stroke-linecap="round" stroke-linejoin="round"/>
<path d="M26.2634 12.6732L12.3134 9.19816C12.0504 9.13195 11.7767 9.11991 11.509 9.16277C11.2412 9.20563 10.985 9.3025 10.7558 9.44748C10.5266 9.59246 10.3294 9.78252 10.1759 10.0061C10.0225 10.2297 9.91618 10.4822 9.86337 10.7482L5.76337 32.6482C5.38837 34.6982 8.01337 35.8982 9.31337 34.2482L26.2634 12.6732Z" stroke="white" stroke-width="3" stroke-linecap="round" stroke-linejoin="round"/>
<path d="M26.2634 12.6732H38.2634" stroke="white" stroke-width="3" stroke-linecap="round" stroke-linejoin="round"/>
<path d="M52.2634 30.4981V46.6731C52.2634 48.7948 51.4205 50.8297 49.9202 52.33C48.4199 53.8303 46.3851 54.6731 44.2634 54.6731H20.2634C18.1416 54.6731 16.1068 53.8303 14.6065 52.33C13.1062 50.8297 12.2634 48.7948 12.2634 46.6731V30.4981" stroke="white" stroke-width="3" stroke-linecap="round" stroke-linejoin="round"/>
</svg>
