<svg width="33" height="33" viewBox="0 0 33 33" fill="none" xmlns="http://www.w3.org/2000/svg">
<path d="M11.8509 27.6257H6.26337C5.99816 27.6257 5.7438 27.5203 5.55627 27.3328C5.36873 27.1452 5.26337 26.8909 5.26337 26.6257V21.0382C5.26292 20.9083 5.28808 20.7797 5.33741 20.6595C5.38674 20.5394 5.45928 20.4302 5.55087 20.3382L20.5509 5.33817C20.6439 5.24368 20.7548 5.16865 20.8772 5.11743C20.9995 5.06622 21.1308 5.03984 21.2634 5.03984C21.396 5.03984 21.5273 5.06622 21.6496 5.11743C21.7719 5.16865 21.8828 5.24368 21.9759 5.33817L27.5509 10.9132C27.6454 11.0062 27.7204 11.1171 27.7716 11.2395C27.8228 11.3618 27.8492 11.4931 27.8492 11.6257C27.8492 11.7583 27.8228 11.8896 27.7716 12.0119C27.7204 12.1342 27.6454 12.2451 27.5509 12.3382L12.5509 27.3382C12.4588 27.4298 12.3496 27.5023 12.2295 27.5516C12.1094 27.601 11.9807 27.6261 11.8509 27.6257V27.6257Z" stroke="white" stroke-width="2" stroke-linecap="round" stroke-linejoin="round"/>
<path d="M17.2634 8.62567L24.2634 15.6257" stroke="white" stroke-width="2" stroke-linecap="round" stroke-linejoin="round"/>
<path d="M20.7634 12.1257L8.76337 24.1257" stroke="white" stroke-width="2" stroke-linecap="round" stroke-linejoin="round"/>
<path d="M12.2009 27.5632L5.32587 20.6882" stroke="white" stroke-width="2" stroke-linecap="round" stroke-linejoin="round"/>
</svg>
