<!DOCTYPE svg PUBLIC "-//W3C//DTD SVG 1.1//EN" "http://www.w3.org/Graphics/SVG/1.1/DTD/svg11.dtd">
<!-- Uploaded to: SVG Repo, www.svgrepo.com, Transformed by: SVG Repo Mixer Tools -->
<svg fill="#ffffff" height="213px" width="213px" version="1.1" id="Filled_Icons" xmlns="http://www.w3.org/2000/svg" xmlns:xlink="http://www.w3.org/1999/xlink" x="0px" y="0px" viewBox="-5.76 -5.76 35.52 35.52" enable-background="new 0 0 24 24" xml:space="preserve" stroke="#ffffff" stroke-width="0.00024000000000000003">
<g id="SVGRepo_bgCarrier" stroke-width="0">
<rect x="-5.76" y="-5.76" width="35.52" height="35.52" rx="17.76" fill="#00e04f" strokewidth="0"/>
</g>
<g id="SVGRepo_iconCarrier"> <g id="Add-User-Filled"> <path d="M21,14h-2v-3h-3V9h3V6h2v3h3v2h-3V14z"/> <path d="M14,6c0,2.76-2.24,5-5,5S4,8.76,4,6s2.24-5,5-5S14,3.24,14,6z M17,23v-4c0-4.42-3.58-8-8-8h0c-4.42,0-8,3.58-8,8v4"/> </g> </g>
</svg>