<svg width="65" height="65" viewBox="0 0 65 65" fill="none" xmlns="http://www.w3.org/2000/svg">
<path d="M38.2634 52.6732V40.6732C38.2634 40.1428 38.0527 39.6341 37.6776 39.259C37.3025 38.8839 36.7938 38.6732 36.2634 38.6732H28.2634C27.7329 38.6732 27.2242 38.8839 26.8492 39.259C26.4741 39.6341 26.2634 40.1428 26.2634 40.6732V52.6732C26.2634 53.2036 26.0527 53.7123 25.6776 54.0874C25.3025 54.4625 24.7938 54.6732 24.2634 54.6732H12.2634C11.7329 54.6732 11.2242 54.4625 10.8492 54.0874C10.4741 53.7123 10.2634 53.2036 10.2634 52.6732V29.5482C10.2678 29.2714 10.3277 28.9983 10.4393 28.745C10.5509 28.4917 10.7121 28.2633 10.9134 28.0732L30.9134 9.8982C31.2821 9.5609 31.7637 9.37384 32.2634 9.37384C32.7631 9.37384 33.2447 9.5609 33.6134 9.8982L53.6134 28.0732C53.8146 28.2633 53.9758 28.4917 54.0874 28.745C54.1991 28.9983 54.2589 29.2714 54.2634 29.5482V52.6732C54.2634 53.2036 54.0527 53.7123 53.6776 54.0874C53.3025 54.4625 52.7938 54.6732 52.2634 54.6732H40.2634C39.7329 54.6732 39.2242 54.4625 38.8492 54.0874C38.4741 53.7123 38.2634 53.2036 38.2634 52.6732Z" stroke="white" stroke-width="3" stroke-linecap="round" stroke-linejoin="round"/>
</svg>
