<svg width="65" height="65" viewBox="0 0 65 65" fill="none" xmlns="http://www.w3.org/2000/svg">
<path d="M20.2634 36.6732C25.7862 36.6732 30.2634 32.196 30.2634 26.6732C30.2634 21.1503 25.7862 16.6732 20.2634 16.6732C14.7405 16.6732 10.2634 21.1503 10.2634 26.6732C10.2634 32.196 14.7405 36.6732 20.2634 36.6732Z" stroke="white" stroke-width="3" stroke-linecap="round" stroke-linejoin="round"/>
<path d="M38.2634 20.6732H61.2634" stroke="white" stroke-width="3" stroke-linecap="round" stroke-linejoin="round"/>
<path d="M38.2634 32.6732H61.2634" stroke="white" stroke-width="3" stroke-linecap="round" stroke-linejoin="round"/>
<path d="M44.2634 44.6732H61.2634" stroke="white" stroke-width="3" stroke-linecap="round" stroke-linejoin="round"/>
<path d="M4.76337 48.6732C5.64457 45.2315 7.64617 42.181 10.4526 40.0026C13.259 37.8242 16.7107 36.6418 20.2634 36.6418C23.816 36.6418 27.2677 37.8242 30.0741 40.0026C32.8806 42.181 34.8822 45.2315 35.7634 48.6732" stroke="white" stroke-width="3" stroke-linecap="round" stroke-linejoin="round"/>
</svg>
